<svg width="142" height="142" viewBox="0 0 142 142" fill="none" xmlns="http://www.w3.org/2000/svg">
<circle cx="71" cy="71" r="71" fill="#003382"/>
<mask id="mask0_0_1" style="mask-type:alpha" maskUnits="userSpaceOnUse" x="0" y="0" width="142" height="142">
<circle cx="71" cy="71" r="71" fill="black"/>
</mask>
<g mask="url(#mask0_0_1)">
<path d="M28.2739 24.8325H78.2002C91.1201 24.8325 101.641 28.8931 109.762 37.0142C117.944 45.1353 122.036 55.6558 122.036 68.5757C122.036 81.5571 117.883 92.1392 109.577 100.322C101.333 108.443 90.6587 112.503 77.5542 112.503H48.9458V158H28.2739V24.8325ZM48.9458 42.2744V95.1538H72.6631C81.6455 95.1538 88.5977 92.8467 93.5195 88.2324C98.4414 83.6182 100.902 77.0967 100.902 68.668C100.902 60.3008 98.4414 53.8101 93.5195 49.1958C88.6592 44.5815 81.7378 42.2744 72.7554 42.2744H48.9458Z" fill="white"/>
</g>
</svg>
