<svg width="112" height="191" viewBox="0 0 112 191" fill="none" xmlns="http://www.w3.org/2000/svg">
<path d="M91.1904 35.1484H111.347V138.554C111.347 150.032 108.792 159.585 103.683 167.214C98.5741 174.842 91.7853 180.581 83.3169 184.431C74.9185 188.21 65.7852 190.1 55.917 190.1C45.5589 190.1 36.1807 188.21 27.7822 184.431C19.4538 180.581 12.84 174.842 7.94092 167.214C3.11182 159.585 0.697266 150.032 0.697266 138.554V35.1484H20.7485V138.554C20.7485 146.533 22.2183 153.111 25.1577 158.291C28.0972 163.47 32.1914 167.319 37.4404 169.838C42.7594 172.358 48.9183 173.618 55.917 173.618C62.9857 173.618 69.1445 172.358 74.3936 169.838C79.7126 167.319 83.8418 163.47 86.7812 158.291C89.7207 153.111 91.1904 146.533 91.1904 138.554V35.1484ZM22.2183 11.4229C22.2183 8.27344 23.1981 5.61393 25.1577 3.44434C27.1174 1.27474 29.9518 0.189941 33.6611 0.189941C37.4404 0.189941 40.3099 1.27474 42.2695 3.44434C44.2292 5.61393 45.209 8.27344 45.209 11.4229C45.209 14.4323 44.2292 17.0218 42.2695 19.1914C40.3099 21.291 37.4404 22.3408 33.6611 22.3408C29.9518 22.3408 27.1174 21.291 25.1577 19.1914C23.1981 17.0218 22.2183 14.4323 22.2183 11.4229ZM67.4648 11.6328C67.4648 8.4834 68.4097 5.82389 70.2993 3.6543C72.259 1.4847 75.1284 0.399902 78.9077 0.399902C82.617 0.399902 85.4515 1.4847 87.4111 3.6543C89.4408 5.82389 90.4556 8.4834 90.4556 11.6328C90.4556 14.6423 89.4408 17.2318 87.4111 19.4014C85.4515 21.501 82.617 22.5508 78.9077 22.5508C75.1284 22.5508 72.259 21.501 70.2993 19.4014C68.4097 17.2318 67.4648 14.6423 67.4648 11.6328Z" fill="#00BCEB"/>
</svg>
