<svg width="383" height="142" viewBox="0 0 383 142" fill="none" xmlns="http://www.w3.org/2000/svg">
<path d="M151.327 117V31.04H159.19V117H151.327ZM222.99 55.0469V117H215.544V105.503H215.365C213.697 109.355 211.056 112.413 207.442 114.677C203.868 116.901 199.659 118.013 194.813 118.013C188.102 118.013 182.78 115.987 178.849 111.937C174.917 107.846 172.951 102.306 172.951 95.3164V55.0469H180.874V93.9463C180.874 99.4268 182.264 103.636 185.044 106.575C187.864 109.514 191.875 110.983 197.077 110.983C202.478 110.983 206.827 109.236 210.123 105.741C213.459 102.246 215.127 97.5999 215.127 91.8018V55.0469H222.99ZM239.968 39.5586H247.831V55.0469H260.043V61.5996H247.831V101.393C247.831 104.57 248.486 106.893 249.797 108.362C251.107 109.792 253.192 110.507 256.052 110.507C258.276 110.507 259.705 110.427 260.341 110.269V117C259.229 117.238 257.283 117.357 254.503 117.357C249.3 117.357 245.567 116.166 243.304 113.783C241.08 111.361 239.968 107.35 239.968 101.75V61.5996H230.734V55.0469H239.968V39.5586ZM314.729 109.375C309.566 115.133 302.735 118.013 294.236 118.013C285.738 118.013 278.907 115.133 273.744 109.375C268.581 103.577 266 95.793 266 86.0234C266 76.2539 268.581 68.4899 273.744 62.7314C278.947 56.9333 285.777 54.0342 294.236 54.0342C302.735 54.0342 309.566 56.9333 314.729 62.7314C319.891 68.4899 322.473 76.2539 322.473 86.0234C322.473 95.793 319.891 103.577 314.729 109.375ZM279.522 104.371C283.176 108.819 288.081 111.043 294.236 111.043C300.392 111.043 305.297 108.819 308.95 104.371C312.644 99.9232 314.49 93.8073 314.49 86.0234C314.49 78.2396 312.644 72.1237 308.95 67.6758C305.297 63.2279 300.392 61.0039 294.236 61.0039C288.081 61.0039 283.176 63.2279 279.522 67.6758C275.869 72.1237 274.042 78.2396 274.042 86.0234C274.042 93.8073 275.869 99.9232 279.522 104.371ZM332.957 117V55.0469H340.403V66.4844H340.582C342.21 62.6322 344.792 59.5941 348.326 57.3701C351.9 55.1462 356.13 54.0342 361.015 54.0342C367.806 54.0342 373.147 56.0794 377.039 60.1699C380.971 64.2604 382.937 69.8203 382.937 76.8496V117H375.073V78.1006C375.073 72.6995 373.644 68.5098 370.784 65.5312C367.965 62.5527 363.953 61.0635 358.751 61.0635C353.39 61.0635 349.061 62.8307 345.765 66.3652C342.468 69.8997 340.82 74.5462 340.82 80.3047V117H332.957Z" fill="#FFFDFD"/>
<circle cx="71" cy="71" r="71" fill="#003382"/>
<mask id="mask0_0_1" style="mask-type:alpha" maskUnits="userSpaceOnUse" x="0" y="0" width="142" height="142">
<circle cx="71" cy="71" r="71" fill="black"/>
</mask>
<g mask="url(#mask0_0_1)">
<path d="M28.2739 24.8325H78.2002C91.1201 24.8325 101.641 28.8931 109.762 37.0142C117.944 45.1353 122.036 55.6558 122.036 68.5757C122.036 81.5571 117.883 92.1392 109.577 100.322C101.333 108.443 90.6587 112.503 77.5542 112.503H48.9458V158H28.2739V24.8325ZM48.9458 42.2744V95.1538H72.6631C81.6455 95.1538 88.5977 92.8467 93.5195 88.2324C98.4414 83.6182 100.902 77.0967 100.902 68.668C100.902 60.3008 98.4414 53.8101 93.5195 49.1958C88.6592 44.5815 81.7378 42.2744 72.7554 42.2744H48.9458Z" fill="white"/>
</g>
</svg>
